<?xml version="1.0" encoding="UTF-8"?>
<svg width="24px" height="24px" viewBox="0 0 24 24" version="1.1" xmlns="http://www.w3.org/2000/svg" xmlns:xlink="http://www.w3.org/1999/xlink">
    <!-- Generator: Sketch 43.1 (39012) - http://www.bohemiancoding.com/sketch -->
    <title>身份图标/写手</title>
    <desc>Created with Sketch.</desc>
    <defs>
        <polygon id="path-1" points="12.00015 -0.0003 8.48415 3.5157 3.51465 3.5157 3.51465 8.4852 0.00015 11.9997 3.51465 15.5142 3.51465 20.4867 8.48415 20.4867 12.00015 23.9997 15.51615 20.4867 20.48415 20.4867 20.48415 15.5142 24.00015 11.9997 20.48415 8.4852 20.48415 3.5157 15.51615 3.5157"></polygon>
    </defs>
    <g id="全局公共部分" stroke="none" stroke-width="1" fill="none" fill-rule="evenodd">
        <g id="身份图标/写手">
            <g id="Fill-1">
                <use fill="#008CC8" fill-rule="evenodd" xlink:href="#path-1"></use>
                <path stroke-opacity="0.4" stroke="#FFFFFF" stroke-width="1.5" d="M12.00015,1.06036017 L14.9858199,4.04603009 L15.2054898,4.2657 L15.51615,4.2657 L19.73415,4.2657 L19.73415,8.4852 L19.73415,8.79595391 L19.9539331,9.01564322 L22.9392635,11.9997 L19.9539331,14.9837568 L19.73415,15.2034461 L19.73415,15.5142 L19.73415,19.7367 L15.51615,19.7367 L15.2056773,19.7367 L14.9860463,19.9561436 L12.00015,22.9394922 L9.01425369,19.9561436 L8.79462268,19.7367 L8.48415,19.7367 L4.26465,19.7367 L4.26465,15.5142 L4.26465,15.2035398 L4.04498009,14.9838699 L1.06081017,11.9997 L4.04498009,9.01553009 L4.26465,8.79586017 L4.26465,8.4852 L4.26465,4.2657 L8.48415,4.2657 L8.79481017,4.2657 L9.01448009,4.04603009 L12.00015,1.06036017 Z"></path>
            </g>
            <path d="M8.32035,11.77155 C7.87185,11.60955 7.54485,11.30355 7.34385,10.85655 C7.13985,10.40805 7.07835,10.00005 7.16085,9.63405 C7.24035,9.26805 7.44585,8.92305 7.76985,8.59605 C8.09535,8.27055 8.46135,8.06655 8.86935,7.98705 C9.27735,7.90455 9.74385,7.94505 10.27485,8.10855 C10.80435,8.27055 11.20935,8.63655 11.49585,9.20655 C11.78085,9.77655 11.86185,10.44855 11.74035,11.22255 C11.61735,11.99505 11.31285,12.80955 10.82385,13.66605 C10.33485,14.51955 9.35835,15.31305 7.89285,16.04805 L7.28235,15.55755 C8.09535,14.98905 8.66535,14.45955 8.99235,13.97055 C9.31635,13.48305 9.56085,12.74805 9.72585,11.77155 C9.23685,11.93355 8.76735,11.93355 8.32035,11.77155" id="Path" fill="#FFFFFF"></path>
            <path d="M13.9629,11.77155 C13.5144,11.60955 13.1874,11.30355 12.9864,10.85655 C12.7824,10.40805 12.7209,10.00005 12.8034,9.63405 C12.8829,9.26805 13.0884,8.92305 13.4124,8.59605 C13.7379,8.27055 14.1039,8.06655 14.5119,7.98705 C14.9199,7.90455 15.3864,7.94505 15.9174,8.10855 C16.4454,8.27055 16.8519,8.63655 17.1384,9.20655 C17.4234,9.77655 17.5044,10.44855 17.3829,11.22255 C17.2599,11.99505 16.9554,12.80955 16.4664,13.66605 C15.9774,14.51955 15.0009,15.31305 13.5354,16.04805 L12.9249,15.55755 C13.7379,14.98905 14.3079,14.45955 14.6349,13.97055 C14.9589,13.48305 15.2034,12.74805 15.3669,11.77155 C14.8779,11.93355 14.4084,11.93355 13.9629,11.77155" id="Path" fill="#FFFFFF"></path>
        </g>
    </g>
</svg>